<svg xmlns="http://www.w3.org/2000/svg" width="1280" height="720" viewBox="0 0 1280 720">
  <defs>
    <style>
      .mono { font-family: 'Courier New', monospace; }
      .bg { fill: #1a1a2e; }
      .header-bg { fill: #0a0a1a; }
      .sidebar-bg { fill: #0a0a1a; }
      .text-cyan { fill: #00ffff; }
      .text-green { fill: #00ff00; }
      .text-red { fill: #ff0000; }
      .text-yellow { fill: #ffcc00; }
      .text-dim { fill: #888888; }
      .divider { stroke: #00ffff; stroke-width: 0.5; stroke-dasharray: 4 4; }
    </style>
  </defs>

  <!-- Main background -->
  <rect width="1280" height="720" fill="#0f0f1a"/>

  <!-- Header -->
  <rect x="0" y="0" width="1280" height="55" fill="#0a0a1a"/>
  <line x1="0" y1="55" x2="1280" y2="55" stroke="#00ffff" stroke-width="1"/>
  <text x="640" y="35" text-anchor="middle" font-family="'Courier New', monospace" font-size="20" fill="#00ffff" font-weight="bold">⚡ AutoSec — CyberSec Operations Console ⚡</text>
  <text x="1220" y="35" text-anchor="end" font-family="'Courier New', monospace" font-size="12" fill="#00ff00">● LIVE</text>

  <!-- Sidebar -->
  <rect x="0" y="55" width="200" height="665" fill="#0a0a1a"/>
  <line x1="200" y1="55" x2="200" y2="720" stroke="#00ff00" stroke-width="1"/>
  <text x="20" y="118" font-family="'Courier New', monospace" font-size="13" fill="#00ff00">  Dashboard</text>
  <rect x="0" y="130" width="200" height="35" fill="#2a2a4a"/>
  <line x1="0" y1="130" x2="200" y2="130" stroke="#00ffff" stroke-width="0.5"/>
  <line x1="0" y1="165" x2="200" y2="165" stroke="#00ffff" stroke-width="0.5"/>
  <text x="20" y="153" font-family="'Courier New', monospace" font-size="13" fill="#00ffff">▶ Blocklist</text>
  <text x="20" y="200" font-family="'Courier New', monospace" font-size="13" fill="#00ff00">  Logs</text>
  <text x="20" y="240" font-family="'Courier New', monospace" font-size="13" fill="#00ff00">  Threat Intel</text>
  <text x="20" y="280" font-family="'Courier New', monospace" font-size="13" fill="#00ff00">  Incidents</text>

  <!-- Main content -->
  <text x="225" y="100" font-family="'Courier New', monospace" font-size="22" fill="#00ff00" font-weight="bold">Dynamic IP Blocklist</text>

  <!-- Add New Rule Form -->
  <text x="225" y="135" font-family="'Courier New', monospace" font-size="16" fill="#00ffff" font-weight="bold">Add New Rule</text>
  <rect x="225" y="145" width="800" height="175" rx="5" stroke="#00ffff" stroke-width="1" fill="#1a1a2e"/>

  <!-- Form fields -->
  <text x="245" y="175" font-family="'Courier New', monospace" font-size="12" fill="#00ffff">Rule Type:</text>
  <rect x="245" y="182" width="160" height="28" rx="3" stroke="#00ffff" stroke-width="1" fill="#2a2a4a"/>
  <text x="255" y="200" font-family="'Courier New', monospace" font-size="12" fill="#00ff00">IP_SINGLE ▾</text>

  <text x="430" y="175" font-family="'Courier New', monospace" font-size="12" fill="#00ffff">Value (IP, CIDR, Country, Org):</text>
  <rect x="430" y="182" width="220" height="28" rx="3" stroke="#00ffff" stroke-width="1" fill="#2a2a4a"/>
  <text x="440" y="200" font-family="'Courier New', monospace" font-size="12" fill="#00ff00">e.g., 192.168.1.1</text>

  <text x="675" y="175" font-family="'Courier New', monospace" font-size="12" fill="#00ffff">Description (Optional):</text>
  <rect x="675" y="182" width="330" height="60" rx="3" stroke="#00ffff" stroke-width="1" fill="#2a2a4a"/>
  <text x="685" y="200" font-family="'Courier New', monospace" font-size="12" fill="#888888">Malicious actor / threat intel...</text>

  <!-- Permanent checkbox -->
  <rect x="245" y="228" width="14" height="14" rx="2" stroke="#00ffff" stroke-width="1" fill="#00ffff"/>
  <text x="265" y="240" font-family="'Courier New', monospace" font-size="12" fill="#cccccc">Permanent Rule</text>

  <!-- Submit button -->
  <rect x="245" y="290" width="100" height="30" rx="3" fill="#00ffff"/>
  <text x="295" y="310" text-anchor="middle" font-family="'Courier New', monospace" font-size="13" fill="#1a1a2e" font-weight="bold">Add Rule</text>

  <!-- Existing Rules Table -->
  <text x="225" y="360" font-family="'Courier New', monospace" font-size="16" fill="#00ffff" font-weight="bold">Existing Rules</text>

  <!-- Table header -->
  <rect x="225" y="370" width="1030" height="30" fill="#2a2a4a"/>
  <line x1="225" y1="370" x2="1255" y2="370" stroke="#00ffff" stroke-width="1"/>
  <line x1="225" y1="400" x2="1255" y2="400" stroke="#00ffff" stroke-width="1"/>
  <line x1="225" y1="370" x2="225" y2="600" stroke="#00ffff" stroke-width="1"/>
  <line x1="1255" y1="370" x2="1255" y2="600" stroke="#00ffff" stroke-width="1"/>

  <text x="235" y="390" font-family="'Courier New', monospace" font-size="12" fill="#00ffff">Type</text>
  <text x="320" y="390" font-family="'Courier New', monospace" font-size="12" fill="#00ffff">Value</text>
  <text x="470" y="390" font-family="'Courier New', monospace" font-size="12" fill="#00ffff">Description</text>
  <text x="700" y="390" font-family="'Courier New', monospace" font-size="12" fill="#00ffff">Source</text>
  <text x="800" y="390" font-family="'Courier New', monospace" font-size="12" fill="#00ffff">Status</text>
  <text x="900" y="390" font-family="'Courier New', monospace" font-size="12" fill="#00ffff">Expires</text>
  <text x="1020" y="390" font-family="'Courier New', monospace" font-size="12" fill="#00ffff">Created</text>
  <text x="1160" y="390" font-family="'Courier New', monospace" font-size="12" fill="#00ffff">Actions</text>

  <!-- Row separators -->
  <line x1="310" y1="370" x2="310" y2="600" stroke="#00ffff" stroke-width="0.5"/>
  <line x1="460" y1="370" x2="460" y2="600" stroke="#00ffff" stroke-width="0.5"/>
  <line x1="690" y1="370" x2="690" y2="600" stroke="#00ffff" stroke-width="0.5"/>
  <line x1="790" y1="370" x2="790" y2="600" stroke="#00ffff" stroke-width="0.5"/>
  <line x1="890" y1="370" x2="890" y2="600" stroke="#00ffff" stroke-width="0.5"/>
  <line x1="1010" y1="370" x2="1010" y2="600" stroke="#00ffff" stroke-width="0.5"/>
  <line x1="1150" y1="370" x2="1150" y2="600" stroke="#00ffff" stroke-width="0.5"/>

  <!-- Row 1 -->
  <rect x="225" y="400" width="1030" height="35" fill="#1a1a2e"/>
  <line x1="225" y1="435" x2="1255" y2="435" stroke="#00ffff" stroke-width="0.5"/>
  <text x="235" y="422" font-family="'Courier New', monospace" font-size="12" fill="#00ff00">IP SINGLE</text>
  <text x="320" y="422" font-family="'Courier New', monospace" font-size="12" fill="#cccccc">1.2.3.4</text>
  <text x="470" y="422" font-family="'Courier New', monospace" font-size="12" fill="#cccccc">Brute-force attacker</text>
  <text x="700" y="422" font-family="'Courier New', monospace" font-size="12" fill="#cccccc">Manual</text>
  <text x="800" y="422" font-family="'Courier New', monospace" font-size="12" fill="#00ff00">Active</text>
  <text x="900" y="422" font-family="'Courier New', monospace" font-size="12" fill="#cccccc">N/A</text>
  <text x="1020" y="422" font-family="'Courier New', monospace" font-size="12" fill="#cccccc">2025-07-23</text>
  <rect x="1160" y="408" width="70" height="22" rx="3" fill="#ff0000"/>
  <text x="1195" y="423" text-anchor="middle" font-family="'Courier New', monospace" font-size="11" fill="#ffffff">Delete</text>

  <!-- Row 2 -->
  <rect x="225" y="435" width="1030" height="35" fill="#1a1a2e"/>
  <line x1="225" y1="470" x2="1255" y2="470" stroke="#00ffff" stroke-width="0.5"/>
  <text x="235" y="457" font-family="'Courier New', monospace" font-size="12" fill="#00ff00">COUNTRY</text>
  <text x="320" y="457" font-family="'Courier New', monospace" font-size="12" fill="#cccccc">KP</text>
  <text x="470" y="457" font-family="'Courier New', monospace" font-size="12" fill="#cccccc">North Korea — Threat Feed</text>
  <text x="700" y="457" font-family="'Courier New', monospace" font-size="12" fill="#cccccc">Threat Feed</text>
  <text x="800" y="457" font-family="'Courier New', monospace" font-size="12" fill="#00ff00">Active</text>
  <text x="900" y="457" font-family="'Courier New', monospace" font-size="12" fill="#cccccc">N/A</text>
  <text x="1020" y="457" font-family="'Courier New', monospace" font-size="12" fill="#cccccc">2025-07-20</text>
  <rect x="1160" y="443" width="70" height="22" rx="3" fill="#ff0000"/>
  <text x="1195" y="458" text-anchor="middle" font-family="'Courier New', monospace" font-size="11" fill="#ffffff">Delete</text>

  <!-- Row 3 -->
  <rect x="225" y="470" width="1030" height="35" fill="#2a2a4a"/>
  <line x1="225" y1="505" x2="1255" y2="505" stroke="#00ffff" stroke-width="0.5"/>
  <text x="235" y="492" font-family="'Courier New', monospace" font-size="12" fill="#00ff00">IP RANGE</text>
  <text x="320" y="492" font-family="'Courier New', monospace" font-size="12" fill="#cccccc">10.0.0.0/8</text>
  <text x="470" y="492" font-family="'Courier New', monospace" font-size="12" fill="#cccccc">Internal test range</text>
  <text x="700" y="492" font-family="'Courier New', monospace" font-size="12" fill="#cccccc">Manual</text>
  <text x="800" y="492" font-family="'Courier New', monospace" font-size="12" fill="#ffcc00">Expired</text>
  <text x="900" y="492" font-family="'Courier New', monospace" font-size="12" fill="#cccccc">2025-07-21</text>
  <text x="1020" y="492" font-family="'Courier New', monospace" font-size="12" fill="#cccccc">2025-07-15</text>
  <rect x="1160" y="478" width="70" height="22" rx="3" fill="#ff0000"/>
  <text x="1195" y="493" text-anchor="middle" font-family="'Courier New', monospace" font-size="11" fill="#ffffff">Delete</text>

  <!-- Row 4 -->
  <rect x="225" y="505" width="1030" height="35" fill="#1a1a2e"/>
  <line x1="225" y1="540" x2="1255" y2="540" stroke="#00ffff" stroke-width="0.5"/>
  <text x="235" y="527" font-family="'Courier New', monospace" font-size="12" fill="#00ff00">ORGANIZATION</text>
  <text x="320" y="527" font-family="'Courier New', monospace" font-size="12" fill="#cccccc">AS15169</text>
  <text x="470" y="527" font-family="'Courier New', monospace" font-size="12" fill="#cccccc">Suspicious AS block</text>
  <text x="700" y="527" font-family="'Courier New', monospace" font-size="12" fill="#cccccc">Manual</text>
  <text x="800" y="527" font-family="'Courier New', monospace" font-size="12" fill="#ff0000">Inactive</text>
  <text x="900" y="527" font-family="'Courier New', monospace" font-size="12" fill="#cccccc">N/A</text>
  <text x="1020" y="527" font-family="'Courier New', monospace" font-size="12" fill="#cccccc">2025-07-10</text>
  <rect x="1160" y="513" width="70" height="22" rx="3" fill="#ff0000"/>
  <text x="1195" y="528" text-anchor="middle" font-family="'Courier New', monospace" font-size="11" fill="#ffffff">Delete</text>

  <line x1="225" y1="540" x2="1255" y2="540" stroke="#00ffff" stroke-width="1"/>

  <!-- Status bar -->
  <rect x="0" y="695" width="1280" height="25" fill="#0a0a1a"/>
  <line x1="0" y1="695" x2="1280" y2="695" stroke="#00ffff" stroke-width="0.5"/>
  <text x="15" y="712" font-family="'Courier New', monospace" font-size="11" fill="#00ff00">● SYSTEM HEALTHY</text>
  <text x="200" y="712" font-family="'Courier New', monospace" font-size="11" fill="#888888">|  PostgreSQL: ●  MongoDB: ●  Redis: ●  RabbitMQ: ●</text>
  <text x="1200" y="712" text-anchor="end" font-family="'Courier New', monospace" font-size="11" fill="#888888">2025-07-23 16:10:42 UTC</text>
</svg>
